<svg width="48" height="48" fill="none" xmlns="http://www.w3.org/2000/svg"><path fill-rule="evenodd" clip-rule="evenodd" d="M34 31.172l-4-4L16.828 14l-4-4-3.414-3.414a1.998 1.998 0 00-2.828 0 1.998 1.998 0 000 2.828l1.066 1.066 3.52 3.52 18.69 18.69 2.91 2.91 5.814 5.814c.39.39.902.586 1.414.586a1.998 1.998 0 001.414-3.414L34 31.172zm6-1.973L34.382 24 40 18.801V29.2zm2.024-14.908a3.433 3.433 0 00-3.702.612l-4.322 4V16c0-3.308-2.692-6-6-6H15.656l4 4H28c1.104 0 2 .898 2 2v8.344l9.436 9.436a3.42 3.42 0 002.588-.07C43.242 33.177 44 32.04 44 30.741V17.26c0-1.298-.758-2.436-1.976-2.968zM10 34h18c.063 0 .119-.016.176-.032a.98.98 0 01.11-.026l3.044 3.044A5.97 5.97 0 0128 38H10c-3.308 0-6-2.692-6-6V16c0-1.742.758-3.298 1.948-4.396l2.844 2.844C8.322 14.814 8 15.36 8 16v16a2 2 0 002 2z" fill="#A9B2CB"/></svg>