<svg width="48" height="48" fill="none" xmlns="http://www.w3.org/2000/svg"><path fill-rule="evenodd" clip-rule="evenodd" d="M26 38h9v-8h-9v8zm-13 0h9v-8h-9v8zm-3-19.6c0-.166.026-.3.052-.4H22v8H10.052a1.567 1.567 0 01-.052-.4v-7.2zm4-6.4c0-1.104 1.026-2 2.286-2 2.514 0 4.054 2.18 4.902 4h-4.902C15.026 14 14 13.104 14 12zm17.714-2c1.26 0 2.286.896 2.286 2s-1.026 2-2.286 2H26.8c.84-1.82 2.376-4 4.914-4zM38 18.4v7.2c0 .166-.026.3-.052.4H26v-8h11.948c.026.1.052.234.052.4zm.4-4.4h-.786A5.656 5.656 0 0038 12c0-3.308-2.82-6-6.286-6C27.87 6 25.458 8.398 24 10.794 22.542 8.398 20.13 6 16.286 6 12.82 6 10 8.692 10 12c0 .706.152 1.372.386 2H9.6C7.582 14 6 15.934 6 18.4v7.2c0 2.214 1.28 3.986 3 4.328v8.738C9 40.504 10.626 42 12.624 42h22.75c2 0 3.626-1.496 3.626-3.334v-8.738c1.72-.342 3-2.114 3-4.328v-7.2c0-2.466-1.582-4.4-3.6-4.4z" fill="#A9B2CB"/></svg>