<svg width="22" height="22" fill="none" xmlns="http://www.w3.org/2000/svg"><path fill-rule="evenodd" clip-rule="evenodd" d="M15.481 16.792c-.157-.397-.381-.744-.577-1.04-.1-.148-.2-.3-.29-.455-.356-.62-.234-.871.345-1.84l.093-.159c.469-.789.494-1.546.518-2.213.011-.329.022-.637.085-.928.148-.671 1.566-.85 2.445-.955A7.21 7.21 0 0118.333 11a7.317 7.317 0 01-2.852 5.792zm-10.933-2.31a7.573 7.573 0 001.857.252c.99 0 2.001-.242 2.876-.927 1.573-1.23 1.573-2.803 1.573-4.068 0-.818 0-1.523.341-2.149.183-.335.574-.568 1.026-.838.277-.166.563-.337.838-.553a4.209 4.209 0 001.3-1.71 7.374 7.374 0 013.048 2.954c-1.309.181-3.167.61-3.542 2.322-.099.452-.114.879-.126 1.255-.02.535-.034.957-.263 1.344l-.092.154c-.593.993-1.264 2.119-.36 3.693.11.19.232.374.352.556.315.473.47.734.47.991a7.293 7.293 0 01-2.846.576 7.34 7.34 0 01-6.452-3.851zM11 3.668c.564 0 1.11.07 1.638.19a2.402 2.402 0 01-.71.899c-.2.158-.424.289-.647.422-.597.355-1.272.759-1.696 1.534-.564 1.036-.564 2.094-.564 3.027 0 1.242-.04 1.976-.87 2.624-1.254.984-3.175.435-4.363-.065A7.397 7.397 0 013.666 11c0-4.043 3.29-7.333 7.334-7.333zm0-1.833c-5.055 0-9.167 4.112-9.167 9.166S5.945 20.167 11 20.167c5.054 0 9.166-4.113 9.166-9.167 0-5.054-4.112-9.166-9.166-9.166z" fill="#D9E0F1"/></svg>